<?xml version="1.0" standalone="no"?><!DOCTYPE svg PUBLIC "-//W3C//DTD SVG 1.1//EN" "http://www.w3.org/Graphics/SVG/1.1/DTD/svg11.dtd"><svg t="1691126993310" class="icon" viewBox="0 0 1024 1024" version="1.1" xmlns="http://www.w3.org/2000/svg" p-id="5222" width="16" height="16" xmlns:xlink="http://www.w3.org/1999/xlink"><path d="M374.613333 113.664a59.221333 59.221333 0 0 0 0 118.442667h98.958223l52.565333 118.129777-205.653333 120.746667-14.023112-29.809778a59.221333 59.221333 0 0 0-11.662222-117.304889H151.808a59.221333 59.221333 0 0 0 0 118.442667h24.405333l48.924445 104.021333a59.249778 59.249778 0 0 0-74.780445-14.364444 203.491556 203.491556 0 0 0-104.277333 177.521778c0 112.071111 91.050667 203.235556 203.093333 203.235555a202.808889 202.808889 0 0 0 139.662223-55.580444l0.056888-0.028445a59.249778 59.249778 0 0 0-81.493333-85.902222 84.081778 84.081778 0 0 1-58.197333 23.153778 84.878222 84.878222 0 0 1-84.764445-84.764444c0-30.72 16.696889-59.192889 43.576889-74.183112a59.249778 59.249778 0 0 0 29.297778-63.232l57.201778 121.628445a59.022222 59.022222 0 0 0 53.589333 33.991111c8.334222 0 16.839111-1.706667 24.945778-5.347556l0.170667-0.085333a59.107556 59.107556 0 0 0 28.444444-78.734222l-30.634667-65.137778 203.491556-119.466667 34.417778 77.368889a59.107556 59.107556 0 0 0-87.324445 18.602667 241.493333 241.493333 0 0 0-30.037333 116.679111c0 132.977778 108.088889 241.038222 241.009778 241.038222 132.977778 0 241.038222-108.174222 241.038222-240.924444a240.355556 240.355556 0 0 0-183.751111-234.211556 59.107556 59.107556 0 0 0-72.760889 50.403556L566.101333 148.821333A59.050667 59.050667 0 0 0 512 113.664h-137.386667z m250.510223 498.744889c4.152889-7.480889 6.542222-15.445333 7.253333-23.409778l46.136889 103.708445a59.164444 59.164444 0 0 0 78.307555 29.980444 59.221333 59.221333 0 0 0 29.980445-78.165333l-45.027556-101.091556c5.888 4.124444 12.629333 7.281778 20.053334 9.102222a122.311111 122.311111 0 0 1 93.44 119.182223 122.823111 122.823111 0 0 1-122.680889 122.652444 122.823111 122.823111 0 0 1-107.463111-181.959111z" fill="#0B63C1" p-id="5223"></path></svg>